PathFileType	4	(X/Y/Z)	Patient4_TMGait_0pt5_02_left_33.trc.trc
DataRate	CameraRate	NumFrames	NumMarkers	Units	OrigDataRate	OrigDataStartFrame	OrigNumFrames
80.924855491330	80.924855491330	4	33	mm	80.924855491330	53	       141
Frame#	Time	Sacral			L.Shoulder			Chest			R.Shoulder			Neck			R.ASIS			L.ASIS			R.Thigh.Superior			R.Thigh.Lateral			R.Thigh.Inferior			R.Patella			L.Thigh.Superior			L.Thigh.Lateral			L.Thigh.Inferior			L.Patella			L.Shank.Superior			L.Shank.Lateral			L.Shank.Inferior			R.Shank.Superior			R.Shank.Lateral			R.Shank.Inferior			R.Heel			R.Midfoot.Superior			R.Midfoot.Lateral			R.Toe			L.Heel			L.Midfoot.Lateral			L.Midfoot.Superior			L.Toe			L.Elbow			L.Wrist			R.Elbow			R.Wrist			
		X1	Y1	Z1	X2	Y2	Z2	X3	Y3	Z3	X4	Y4	Z4	X5	Y5	Z5	X6	Y6	Z6	X7	Y7	Z7	X8	Y8	Z8	X9	Y9	Z9	X10	Y10	Z10	X11	Y11	Z11	X12	Y12	Z12	X13	Y13	Z13	X14	Y14	Z14	X15	Y15	Z15	X16	Y16	Z16	X17	Y17	Z17	X18	Y18	Z18	X19	Y19	Z19	X20	Y20	Z20	X21	Y21	Z21	X22	Y22	Z22	X23	Y23	Z23	X24	Y24	Z24	X25	Y25	Z25	X26	Y26	Z26	X27	Y27	Z27	X28	Y28	Z28	X29	Y29	Z29	X30	Y30	Z30	X31	Y31	Z31	X32	Y32	Z32	X33	Y33	Z33	

53	43.162571428571	716.554143734224	1016.165832957697	454.558751921467	916.877135095401	1438.805842616460	281.881910418859	1010.896597928937	1362.854031084314	445.356941071982	924.060036049715	1438.354602484960	618.413996188784	913.733677050367	1498.121865553528	434.048319966398	939.019646227438	946.702062640072	578.420177874210	934.348858762311	961.975442640108	304.214344166683	1015.949494384539	773.075811170911	548.133982075299	971.929902466608	652.407215362157	617.167299509246	1060.344060295779	609.684242785588	537.986494010121	1074.091588534323	494.155136570502	558.780423778687	978.872752733489	751.569970751853	333.762257724897	889.505063558317	637.851044933603	276.738911848882	970.185797314362	559.325400980364	343.279781353410	968.480157935317	489.569057323630	355.343395721658	943.097150484931	418.337453753207	346.477469977412	856.759139220522	303.418119579706	292.255869336321	903.248252631805	193.778639403381	368.510904208495	993.098198660851	423.880402088656	565.845619468842	870.538731648924	392.155264362599	628.061621057332	847.142877052271	285.541325805906	577.972741308034	643.127931957303	243.486686714671	556.014714256934	805.234068609525	164.420226887536	585.826089875517	695.930080436214	169.909988077933	621.356637524378	858.143516985478	42.249278884492	598.630764097275	771.495051527866	37.982694113257	405.792438922850	848.499474100214	35.324125315667	327.866827234001	930.657405422363	96.267954524866	357.830993080798	1060.218404080078	44.011711765308	334.712227122018	870.796230432447	1107.945893203492	119.338388276289	1048.669554596324	916.965437353946	106.516790095854	835.207754429810	1102.407988027245	733.240145017423	904.732238855365	850.160275567256	739.950198209346	
54	43.174928571429	715.880854022835	1016.805638732489	453.930856485872	917.564222685414	1439.275011993794	281.509493587080	1010.671150993513	1363.317305261074	445.474006527764	923.031505633063	1438.899282938959	618.114424581421	913.598361084017	1498.561125397428	433.702810781153	938.111172502952	947.574837762650	578.171118136710	934.033376985890	962.381288257622	304.033942200006	1017.039575620950	776.461673639316	546.806724191847	975.938331888005	655.153663920786	616.288475598538	1064.283251957848	613.907010269950	536.265336176721	1080.635942908425	498.626858328428	557.053569362270	976.749812452286	750.737326043684	334.002069428707	886.358894641075	637.941554183816	276.731887817605	965.813836673788	558.641676987898	343.702777446764	963.301758156493	489.027254210095	355.843346743514	937.872978197098	418.088099675303	346.692879435796	851.284221042347	303.427826473370	292.346958649762	897.272341878825	193.678687856325	368.729715722124	1000.970437581732	426.862342310050	564.661465861868	879.344691650773	392.409483202005	627.217032251196	858.205840873092	285.242483987324	577.323372127496	655.113260989285	238.145685508679	555.940024719579	819.138623201586	163.218935041823	585.234151875559	709.960641890609	166.108766176290	621.319804288273	875.107199753376	42.767092205880	598.113370979098	765.196633251971	37.929170424806	405.765433050475	842.227759694878	35.305775487483	327.851679431624	924.364049205062	96.272838687119	357.854971911800	1053.911401886207	44.162145609821	334.691129162028	876.802992759508	1108.811161499610	117.052337427666	1061.747886572233	924.982246282628	104.301685855235	827.203476961796	1104.598374086315	731.339187138614	883.775363279984	848.886819350552	736.271631187881	
55	43.187285714286	715.279405084077	1017.356596005124	453.346504409304	918.302218535047	1439.701814029454	281.266652023884	1010.458817587516	1363.718368058229	445.730873450965	921.968361345628	1439.374686975313	617.906347565607	913.435062438612	1498.933887555936	433.486507422270	937.196601592739	948.339176944841	578.034163337457	933.901467937442	962.736516487660	303.951939503646	1017.895823049832	779.537468963957	545.768650836130	979.443006011270	657.707842295290	615.660773832328	1067.643034634759	617.777578512970	534.839248965855	1086.452945492964	502.960983798857	555.693137158554	974.621439341578	749.886333926120	334.478304145029	883.309387577859	638.009794416998	276.726914499292	961.463741297763	557.942486149904	344.176676168298	958.131894795629	488.468970002234	356.345469387320	932.668599465885	417.814928118993	346.906749758233	845.834612375841	303.417670789549	292.427716430845	891.274181151949	193.553766561505	368.940651403099	1008.479639230219	429.553543203172	563.779358353651	888.004660639968	391.745029195140	626.567544295769	869.768039114207	283.964519342467	576.848777729383	667.985559119736	230.672772164838	555.781267182872	834.225849889943	160.987776207705	584.876092852192	725.179893087235	160.655341951515	621.360630841705	893.961957600318	42.729157535004	598.096478769012	758.900517127810	37.868101191358	405.751436112783	835.958508537448	35.282537521598	327.840402493365	918.071578641160	96.270147298948	357.885956301596	1047.611150202003	44.299613800182	334.683338382499	882.676560532945	1109.690346886288	115.093191471922	1074.574114499087	933.449400350143	102.430742656595	819.366783537200	1106.858192331076	729.464324610876	863.894948115009	848.605937688102	732.314404883912	
56	43.199642857143	714.746297037588	1017.787647239907	452.796247500776	919.093479844849	1440.046134704558	281.148788933381	1010.262180191829	1364.029890511188	446.127199778061	920.868094441125	1439.759391169290	617.780850072720	913.265843530514	1499.213847678924	433.390619426973	936.274030918479	948.965311268317	578.015930435277	933.966532190194	963.027683144970	303.964494632243	1018.522448184977	782.241908515300	545.029584802063	982.422008392880	659.997168755307	615.298535354929	1070.422454097963	621.209831081586	533.747072718179	1091.505446786237	507.078976607910	554.742061917250	972.520664393198	749.018513711223	335.150667186932	880.379110023557	638.044032453589	276.709731041393	957.176541845708	557.222812008346	344.670084727456	953.021221394994	487.890891514750	356.825076548610	927.523812218223	417.505679640489	347.107931256863	840.443179029880	303.382377433841	292.488104786499	885.273252082361	193.397616060111	369.137512694526	1015.595605776439	431.912910526601	563.227046632184	896.535101327310	390.174644935680	626.141388772715	881.824622256966	281.779822079186	576.564118285424	681.837845905431	221.278081968641	555.572748178139	850.456221882203	157.854401002502	584.752477501274	741.603693245519	153.735721739380	621.482016221368	914.546183602470	42.232416599135	598.532571186374	752.612111523878	37.804218749821	405.745033179015	829.694658133011	35.254854543231	327.830828773083	911.784198103549	96.258704842888	357.922294394231	1041.322336021869	44.416200461264	334.686674358495	888.429505345322	1110.535157473332	113.436760679143	1087.094697064531	942.287136688614	100.892419639538	811.666802396391	1109.161769901324	727.596123395640	845.154872457426	849.142270308259	728.237239977174	
